<svg xmlns="http://www.w3.org/2000/svg" viewBox="0 0 800 620" fill="none">
  <rect width="800" height="620" fill="#0c1218"/>
  <rect x="48" y="48" width="704" height="524" rx="12" fill="#0a0f14" stroke="#1a2838"/>
  <rect x="48" y="48" width="704" height="48" rx="12" fill="#111820"/>
  <circle cx="80" cy="72" r="10" fill="#38bdf8"/>
  <rect x="100" y="66" width="80" height="12" rx="4" fill="#fff" opacity="0.9"/>
  <rect x="620" y="64" width="100" height="24" rx="8" fill="#38bdf8" opacity="0.2"/>
  <rect x="48" y="96" width="160" height="476" fill="#0d1319"/>
  <rect x="72" y="120" width="100" height="8" rx="4" fill="#38bdf8"/>
  <rect x="72" y="148" width="112" height="6" rx="3" fill="#8a8a93"/>
  <rect x="72" y="168" width="112" height="6" rx="3" fill="#8a8a93" opacity="0.5"/>
  <rect x="72" y="188" width="112" height="6" rx="3" fill="#8a8a93" opacity="0.5"/>
  <rect x="220" y="120" width="508" height="32" rx="8" fill="#161616"/>
  <rect x="236" y="132" width="60" height="8" rx="4" fill="#8a8a93"/>
  <rect x="320" y="132" width="60" height="8" rx="4" fill="#8a8a93"/>
  <rect x="404" y="132" width="60" height="8" rx="4" fill="#8a8a93"/>
  <rect x="488" y="132" width="60" height="8" rx="4" fill="#fff" opacity="0.8"/>
  <rect x="220" y="168" width="160" height="360" rx="10" fill="#161616"/>
  <rect x="236" y="188" width="120" height="48" rx="8" fill="#38bdf8" opacity="0.15"/>
  <rect x="236" y="252" width="120" height="48" rx="8" fill="#161616"/>
  <rect x="236" y="316" width="120" height="48" rx="8" fill="#161616"/>
  <rect x="400" y="168" width="160" height="360" rx="10" fill="#161616"/>
  <rect x="416" y="188" width="120" height="48" rx="8" fill="#161616"/>
  <rect x="416" y="252" width="120" height="72" rx="8" fill="#38bdf8" opacity="0.2"/>
  <rect x="580" y="168" width="148" height="360" rx="10" fill="#161616"/>
  <rect x="596" y="188" width="116" height="48" rx="8" fill="#161616"/>
  <rect x="596" y="252" width="116" height="48" rx="8" fill="#10b981" opacity="0.2"/>
</svg>
