<svg xmlns="http://www.w3.org/2000/svg" viewBox="0 0 800 620" fill="none">
  <rect width="800" height="620" fill="#0f1a14"/>
  <rect x="280" y="40" width="240" height="520" rx="28" fill="#0a120e" stroke="#1a3024"/>
  <rect x="296" y="72" width="208" height="32" rx="8" fill="#142018"/>
  <rect x="312" y="82" width="100" height="10" rx="5" fill="#10b981"/>
  <rect x="296" y="116" width="208" height="88" rx="12" fill="#10b981" opacity="0.12"/>
  <rect x="312" y="132" width="140" height="10" rx="5" fill="#fff" opacity="0.9"/>
  <rect x="312" y="150" width="176" height="6" rx="3" fill="#8a8a93"/>
  <rect x="312" y="164" width="80" height="20" rx="10" fill="#10b981"/>
  <rect x="296" y="216" width="208" height="88" rx="12" fill="#161616"/>
  <rect x="312" y="232" width="120" height="10" rx="5" fill="#fff" opacity="0.85"/>
  <rect x="312" y="250" width="160" height="6" rx="3" fill="#8a8a93"/>
  <rect x="312" y="268" width="64" height="18" rx="9" fill="#10b981" opacity="0.25"/>
  <rect x="296" y="316" width="208" height="88" rx="12" fill="#161616"/>
  <rect x="312" y="332" width="100" height="10" rx="5" fill="#fff" opacity="0.85"/>
  <rect x="312" y="350" width="150" height="6" rx="3" fill="#8a8a93"/>
  <rect x="312" y="368" width="72" height="18" rx="9" fill="#10b981" opacity="0.25"/>
  <rect x="308" y="500" width="184" height="44" rx="22" fill="#10b981"/>
  <rect x="348" y="516" width="104" height="10" rx="5" fill="#fff"/>
</svg>
